<svg xmlns="http://www.w3.org/2000/svg" viewBox="0 0 180.2 93.7"><defs><style>.cls-1{fill:#1d1d1b;}.cls-2{fill:#90b324;}</style></defs><g id="Calque_2" data-name="Calque 2"><g id="menu"><path class="cls-1" d="M25.84,58.31a6.2,6.2,0,0,1-5,2.09H15.29V60h2.23V44.81H15.29v-.38h5.78a5.72,5.72,0,0,1,4.77,2.12,9.07,9.07,0,0,1,1.7,5.84,9.19,9.19,0,0,1-1.7,5.92M24.79,47.26a4.61,4.61,0,0,0-3.93-1.89H18.72v14.1h2.06a4.61,4.61,0,0,0,4-1.9,8.56,8.56,0,0,0,1.41-5.22,8.41,8.41,0,0,0-1.41-5.09"/><path class="cls-1" d="M30.55,54.58a8.76,8.76,0,0,0,.75,3.77,2.46,2.46,0,0,0,2.28,1.43,3.66,3.66,0,0,0,.65-.06,3.21,3.21,0,0,0,.66-.17,2.88,2.88,0,0,0,.59-.27,1.59,1.59,0,0,0,.42-.39,5.85,5.85,0,0,0,.6-1,3.24,3.24,0,0,0,.32-1.2h.49a5,5,0,0,1-1.19,3,3.15,3.15,0,0,1-2.41,1.07,3.59,3.59,0,0,1-3.25-1.65,8.26,8.26,0,0,1-1.1-4.64,8.77,8.77,0,0,1,1.08-4.7A3.46,3.46,0,0,1,33.58,48a3.17,3.17,0,0,1,3,1.76,10,10,0,0,1,1,4.78l.11,0Zm6.11-2.89A6.34,6.34,0,0,0,36,50.21a2.33,2.33,0,0,0-.49-.55,2.55,2.55,0,0,0-.63-.39,3.86,3.86,0,0,0-.73-.23,3,3,0,0,0-.71-.08,2.36,2.36,0,0,0-2.12,1.45,7.41,7.41,0,0,0-.78,3.26H37a7.61,7.61,0,0,0-.31-2m-2.83-4.54h-.47l.8-3h1.7Z"/><polygon class="cls-1" points="46.74 48.76 43.67 60.4 42.37 60.4 39.4 48.76 38.4 48.76 38.4 48.33 42.24 48.33 42.24 48.76 40.61 48.76 43.09 59.15 45.54 48.76 43.91 48.76 43.91 48.33 47.75 48.33 47.75 48.76 46.74 48.76"/><path class="cls-1" d="M49.42,54.58a8.6,8.6,0,0,0,.76,3.77,2.44,2.44,0,0,0,2.28,1.43,4.26,4.26,0,0,0,1.31-.23,2,2,0,0,0,1-.66c.21-.3.41-.64.62-1a2.79,2.79,0,0,0,.36-1.2h.4a5,5,0,0,1-1.18,3,3.16,3.16,0,0,1-2.41,1.07,3.6,3.6,0,0,1-3.26-1.65,8.27,8.27,0,0,1-1.09-4.64,8.86,8.86,0,0,1,1.07-4.7A3.47,3.47,0,0,1,52.46,48a3.16,3.16,0,0,1,3,1.76,9.85,9.85,0,0,1,1,4.78l.11,0Zm5.47-4.37a2.58,2.58,0,0,0-.49-.55,2.81,2.81,0,0,0-.64-.39A3.56,3.56,0,0,0,53,49a3.11,3.11,0,0,0-.72-.08,2.36,2.36,0,0,0-2.12,1.45,7.41,7.41,0,0,0-.78,3.26h6.29a7,7,0,0,0-.82-3.46"/><polygon class="cls-1" points="57.27 60.4 57.27 60.02 59.17 60.02 59.17 44.81 57.27 44.81 57.27 44.43 60.38 44.43 60.38 60.02 62.12 60.02 62.12 60.4 57.27 60.4"/><path class="cls-1" d="M70.66,59a3.71,3.71,0,0,1-6.27,0,8.59,8.59,0,0,1-1.11-4.62,8.45,8.45,0,0,1,1.11-4.62,3.71,3.71,0,0,1,6.27,0,8.4,8.4,0,0,1,1.12,4.64A8.2,8.2,0,0,1,70.66,59m-.89-8.52a2.44,2.44,0,0,0-4.49,0,8.44,8.44,0,0,0-.8,3.93,8.28,8.28,0,0,0,.8,3.9,2.43,2.43,0,0,0,4.49,0,8.16,8.16,0,0,0,.8-3.9,8.32,8.32,0,0,0-.8-3.93"/><path class="cls-1" d="M81.37,59a3.14,3.14,0,0,1-2.85,1.74,3.38,3.38,0,0,1-1.84-.55,3.64,3.64,0,0,1-1.27-1.85v5.4h1.83v.4H72.47v-.4h1.74v-15H72.47v-.38h2.94v2.19a4,4,0,0,1,1.27-1.9,3.18,3.18,0,0,1,1.9-.6,3.07,3.07,0,0,1,2.81,1.72,9.43,9.43,0,0,1,1,4.64,9,9,0,0,1-1,4.59m-1-8.52A2.4,2.4,0,0,0,78.18,49,2.33,2.33,0,0,0,76,50.39a8.86,8.86,0,0,0-.76,4.1v.27A7.39,7.39,0,0,0,76,58.39a2.36,2.36,0,0,0,4.35-.11,8.51,8.51,0,0,0,.78-3.9,8.58,8.58,0,0,0-.78-3.93"/><path class="cls-1" d="M92.1,59a3.14,3.14,0,0,1-2.85,1.74,3.32,3.32,0,0,1-1.83-.55,3.59,3.59,0,0,1-1.28-1.85v5.4H88v.4H83.2v-.4h1.74v-15H83.2v-.38h2.94v2.19a4,4,0,0,1,1.28-1.9,3.13,3.13,0,0,1,1.89-.6,3.07,3.07,0,0,1,2.81,1.72,9.43,9.43,0,0,1,1,4.64,9,9,0,0,1-1,4.59m-1-8.52A2.39,2.39,0,0,0,88.91,49a2.33,2.33,0,0,0-2.14,1.43,8.86,8.86,0,0,0-.76,4.1v.27a7.39,7.39,0,0,0,.76,3.63,2.36,2.36,0,0,0,4.35-.11,8.51,8.51,0,0,0,.78-3.9,8.58,8.58,0,0,0-.78-3.93"/><path class="cls-1" d="M95.92,54.58a8.61,8.61,0,0,0,.75,3.77A2.46,2.46,0,0,0,99,59.78a4.27,4.27,0,0,0,1.32-.23,2,2,0,0,0,1-.66c.21-.3.42-.64.63-1a2.94,2.94,0,0,0,.36-1.2h.4a5,5,0,0,1-1.19,3,3.16,3.16,0,0,1-2.41,1.07,3.59,3.59,0,0,1-3.25-1.65,8.26,8.26,0,0,1-1.1-4.64,8.86,8.86,0,0,1,1.07-4.7A3.49,3.49,0,0,1,99,48a3.17,3.17,0,0,1,3,1.76,10,10,0,0,1,1,4.78l.11,0Zm5.46-4.37a2.13,2.13,0,0,0-.49-.55,2.55,2.55,0,0,0-.63-.39,3.86,3.86,0,0,0-.73-.23,3,3,0,0,0-.71-.08,2.35,2.35,0,0,0-2.12,1.45,7.41,7.41,0,0,0-.78,3.26h6.29a7,7,0,0,0-.83-3.46"/><path class="cls-1" d="M114.54,60.4V60h1.88V52.3a5.18,5.18,0,0,0-.49-2.43,1.59,1.59,0,0,0-1.45-.91,1.77,1.77,0,0,0-1.7,1.09,6.24,6.24,0,0,0-.58,3v7h1.63v.38h-4.77V60H111V52.3a5.4,5.4,0,0,0-.46-2.43,1.5,1.5,0,0,0-1.39-.91,1.87,1.87,0,0,0-1.74,1.16,6.3,6.3,0,0,0-.64,3V60h1.76v.38h-4.8V60h1.83V48.71h-1.9v-.38h3.11v1.9a3.42,3.42,0,0,1,1.07-1.65,2.54,2.54,0,0,1,1.61-.56,2.4,2.4,0,0,1,1.76.65,3.08,3.08,0,0,1,.8,1.72,3.42,3.42,0,0,1,1-1.72,2.63,2.63,0,0,1,1.74-.65,2.44,2.44,0,0,1,2.17,1.07,5.5,5.5,0,0,1,.73,3.06V60h1.66v.38Z"/><path class="cls-1" d="M121.68,54.58a8.75,8.75,0,0,0,.76,3.77,2.46,2.46,0,0,0,2.28,1.43,4.26,4.26,0,0,0,1.31-.23,2,2,0,0,0,1-.66c.21-.3.42-.64.63-1a2.93,2.93,0,0,0,.35-1.2h.4a4.89,4.89,0,0,1-1.18,3,3.16,3.16,0,0,1-2.41,1.07,3.62,3.62,0,0,1-3.26-1.65,8.35,8.35,0,0,1-1.09-4.64,8.86,8.86,0,0,1,1.07-4.7,3.48,3.48,0,0,1,3.15-1.7,3.18,3.18,0,0,1,3,1.76,10,10,0,0,1,1,4.78l.11,0Zm5.47-4.37a2.33,2.33,0,0,0-.49-.55,2.81,2.81,0,0,0-.64-.39,3.56,3.56,0,0,0-.72-.23,3.05,3.05,0,0,0-.72-.08,2.33,2.33,0,0,0-2.11,1.45,7.27,7.27,0,0,0-.79,3.26H128a7.1,7.1,0,0,0-.83-3.46"/><path class="cls-1" d="M135.09,60.4V60H137V52.57a6.3,6.3,0,0,0-.45-2.67A1.62,1.62,0,0,0,135,49a1.92,1.92,0,0,0-1.76,1.2,6.47,6.47,0,0,0-.65,3.08V60h1.74v.38h-4.84V60h1.9V48.71h-1.9v-.38h3.1v1.9a3,3,0,0,1,1.16-1.72,3.22,3.22,0,0,1,1.72-.49,2.27,2.27,0,0,1,2.07,1.07,5.59,5.59,0,0,1,.69,3.06V60h1.74v.38Z"/><path class="cls-1" d="M145.49,59.93a3.23,3.23,0,0,1-.63.58,1.41,1.41,0,0,1-.84.2,4.16,4.16,0,0,1-1.16-.16,1.69,1.69,0,0,1-.85-.48,3,3,0,0,1-.54-2V48.78H139.8v-.45h1.67V45.88l1.23-.45v2.9h2.72v.45H142.7v9.28a2.19,2.19,0,0,0,.31,1.27,1,1,0,0,0,.52.34,2.26,2.26,0,0,0,.64.11,1.82,1.82,0,0,0,.66-.14,1.14,1.14,0,0,0,.53-.4,3.86,3.86,0,0,0,.35-1.92h.43v.38a3.41,3.41,0,0,1-.65,2.23"/><path class="cls-2" d="M29.36,37.3a6.18,6.18,0,0,1-5.82-3.53h-.22a8.29,8.29,0,0,1-2.61,2.51,10.27,10.27,0,0,1-4.92,1.45c-3,0-7.58-1.55-7.58-8.07a9.68,9.68,0,0,1,6.09-9.13,23.91,23.91,0,0,1,8.11-2c0-2.77,0-3.57-.53-4.32A3.79,3.79,0,0,0,18.79,13c-3.26,0-5.29,1.76-6.84,3.1L8.42,11.72C10.83,9.85,13.23,8,19.26,8c2,0,6.2.48,8.5,2.78a7.25,7.25,0,0,1,2.13,5.77V30.41c0,.15.54,3.16,4.54,1.94a22.81,22.81,0,0,0,3-11.36c0-11.59-8.37-21-18.71-21S0,9.4,0,21,8.38,42,18.71,42A17.48,17.48,0,0,0,30.49,37.3Z"/><path class="cls-2" d="M18.3,32.17c3.42,0,4.06-3.42,4.06-5.29V22.51c-1.65.32-7,1.33-7,6.19C15.31,30.62,16.49,32.17,18.3,32.17Z"/><path class="cls-1" d="M60.48,33.64q-4.59,0-6-13.83c-.32,0-.71,0-1.15,0a35.66,35.66,0,0,0-7.09,1.09c-2.93.66-4.44,1.1-4.52,1.3-.58,1.43-1.49,3.56-2.73,6.41q-.75,2-2.06,5.24c-.66,1.62-1.38,2.44-2.16,2.44s-1.32-.49-1.32-1.48q0-.63,4-8.49c.68-1.34,1.16-2.35,1.45-3a11.84,11.84,0,0,0-2.39,1.21,1.88,1.88,0,0,1-1,.29,1.11,1.11,0,0,1-1.24-1.28q0-.88,2.49-1.8c1.1-.36,2.2-.72,3.31-1.1.4-.87.89-1.9,1.44-3.07Q42.92,14.25,46,7.86c2-4,4-5.95,5.95-5.95a2.87,2.87,0,0,1,2.37,1.73A8.24,8.24,0,0,1,55.24,6a89.5,89.5,0,0,1,1.3,11.62c3.33.29,5,1.45,5,3.48a1.59,1.59,0,0,1-.88,1.55c-.77.38-1.15.13-1.15-.73a4.31,4.31,0,0,1,.26-.82c0-.91-1.11-1.37-3.31-1.37.2,0,.34.2.41.59q1.65,11.53,3.58,11.54a1.29,1.29,0,0,0,.79-.28A3.77,3.77,0,0,1,62,31.1a1,1,0,0,1,.36-.08c.61,0,.92.32.92,1.05,0,.47-.37.87-1.12,1.19a3.6,3.6,0,0,1-1.63.38m-7-24.13C53,5.84,52.25,4,51.41,4S49,6.37,46.75,11.12Q45.58,13.58,43,19.58a56.29,56.29,0,0,1,11.27-2.13c-.12-1.68-.39-4.32-.79-7.94"/><path class="cls-1" d="M66.89,27.8a31.42,31.42,0,0,1,6.43-7.73C76.43,17.36,79.31,16,82,16a4.82,4.82,0,0,1,2.55.74,3,3,0,0,1,1.6,2.66q0,4-5.77,9.69t-9.54,5.7c-2.07,0-3.1-.77-3.1-2.32A3.73,3.73,0,0,1,69,29.93a1.09,1.09,0,0,1,.81-.3c.38,0,.56.13.56.4a1.51,1.51,0,0,1-.33.79,3.32,3.32,0,0,0-.69,1.4c0,.44.33.66,1,.66q3.18,0,8.57-5.41t5.34-8.22c0-1-.7-1.55-2.09-1.55q-5,0-12.48,9.77l-.07.1-.21.35c-1.07,1.8-1.86,2.7-2.39,2.7-1.12,0-1.85-.77-2.19-2.32a25.29,25.29,0,0,1-.17-3.61q0-4.41,2.34-13.52,2.42-9.36,3.81-9.36a1.8,1.8,0,0,1,1,.36,1.15,1.15,0,0,1,.63,1,.85.85,0,0,1-.07.33q-2.6,6.61-3,8a46.44,46.44,0,0,0-2.65,14.09,8.29,8.29,0,0,0,.31,2.29"/><path class="cls-1" d="M91.32,19.1q3.17-8,6.77-8a2.5,2.5,0,0,1,2.79,2.18c.16.88-.13,1.32-.86,1.32a.52.52,0,0,1-.51-.3,4.13,4.13,0,0,1-.2-.64l0-.28a.6.6,0,0,0-.66-.51c-.83,0-1.89.89-3.18,2.65a23.2,23.2,0,0,0-3.18,5.7,18.33,18.33,0,0,0-.92,6.3q0,.14.18,4.14a1.19,1.19,0,0,1-.49.91A1.53,1.53,0,0,1,90,33c-1,0-1.37-.74-1.25-2.21q.47-5.14.46-8.55a77.87,77.87,0,0,0-.46-8,1.37,1.37,0,0,1,.43-1,1.39,1.39,0,0,1,1-.54,1.25,1.25,0,0,1,1.21.84,2,2,0,0,1,.21,1.14,35.18,35.18,0,0,0-.31,4.48"/><path class="cls-1" d="M111.78,30.79q-2.43-.86-2.43-5.64v-1a44.26,44.26,0,0,1-5.52,6.13Q100,33.8,97.72,33.8a2,2,0,0,1-1.26-.41,2.61,2.61,0,0,1-.91-2.24c0-2.12,1.13-5,3.4-8.57a37.68,37.68,0,0,1,7.22-8.49c2.85-2.42,5-3.19,6.33-2.29a2.83,2.83,0,0,1,1,2.57c0,1.56-.53,2.39-1.6,2.49-.75.05-1.12-.21-1.12-.79a.59.59,0,0,1,0-.23,5.5,5.5,0,0,0,.46-2.13c0-.37,0-.55-.13-.53q-2.52.45-8.15,7.76T97.35,31q0,1,.87,1,2.2,0,6.94-5.72c2.18-2.64,3.38-4.11,3.58-4.4a8.11,8.11,0,0,0,1.65-3.68A1.13,1.13,0,0,1,111.61,17c1,0,1.45.5,1.25,1.5a66.57,66.57,0,0,0-1.25,8c0,1.73.39,2.69,1.15,2.9a1.24,1.24,0,0,0,.86-.15.89.89,0,0,0,.44-.46,1.22,1.22,0,0,1,1.27-1.1c.4,0,.61.22.61.67a2.1,2.1,0,0,1-.16.68,2.86,2.86,0,0,1-2.86,2,3,3,0,0,1-1.14-.24"/><path class="cls-1" d="M122.72,46.84a8.84,8.84,0,0,1-6.6-3.13c-1.72-1.8-2.57-3.43-2.57-4.91,0-.71.28-1.06.86-1.06.32,0,.57.25.74.76l.3,1.14a8.12,8.12,0,0,0,2.39,3.49,6.63,6.63,0,0,0,3.82,1.62q5.41.47,8.57-6a25.9,25.9,0,0,0,2.54-11.52,58.13,58.13,0,0,0-1.25-10.75,84.92,84.92,0,0,1-3.58,8.26c-1.93,3.64-3.82,5.76-5.65,6.36a3.09,3.09,0,0,1-.91.15c-1.63,0-2.44-1.26-2.44-3.76a38.22,38.22,0,0,1,1.8-9.74q1.91-6.62,3.33-6.74a1.48,1.48,0,0,1,1.06.37,1.14,1.14,0,0,1,.55.82.52.52,0,0,1-.06.23,30.8,30.8,0,0,0-2.8,5.85,26.32,26.32,0,0,0-1.8,9c0,1.44.21,2.16.64,2.16s1.38-.89,2.56-2.69a32.69,32.69,0,0,0,1.73-2.9q3.62-5.67,4.2-9.36a8.58,8.58,0,0,0,.08-2.34c-.14-1.15.28-1.72,1.24-1.72s1.47.85,1.65,2.56l0,.33c.41,3.78.87,6.12,1.4,7q.44.73.43,7a28.47,28.47,0,0,1-2.52,11.52q-3.45,7.94-9.74,7.93"/><path class="cls-1" d="M151.12,14.73a4.57,4.57,0,0,1-1-.46,3.37,3.37,0,0,0-1.28-.48q-1.74-.16-4.84,2.51T140.8,21c0,.69,1.24,1,3.71,1q7.17,0,7.17,4c0,1.88-1.05,3.57-3.17,5.06a10,10,0,0,1-5.76,2,4,4,0,0,1-2.36-.78A2.74,2.74,0,0,1,139.12,30a2.65,2.65,0,0,1,.51-1.37c.38-.61.79-.91,1.23-.91a.91.91,0,0,1,.35.07,4.77,4.77,0,0,1-.3,1.37,1.71,1.71,0,0,0-.11.59c0,.76.46,1.14,1.37,1.14A10.88,10.88,0,0,0,147,29.55c2-1,3-2.08,3-3.2a2,2,0,0,0-1-1.73,3.79,3.79,0,0,0-1.91-.61l-4.89-.18a7.13,7.13,0,0,1-2.37-.51c-1-.41-1.56-.95-1.56-1.63,0-1.67,1.32-3.8,4-6.36s4.86-3.86,6.67-3.86a4.15,4.15,0,0,1,1.86.59c.86.47,1.29,1,1.29,1.57,0,.73-.29,1.1-.89,1.1"/><path class="cls-1" d="M159.57,33.54q-2.41,0-3.69-3.76a15.39,15.39,0,0,1-.89-5.06,34.65,34.65,0,0,1,.56-5.57c.56-3.18,1.32-4.78,2.29-4.78q1.14,0,1.14,1.32a7.55,7.55,0,0,1-.71,2.29,23.18,23.18,0,0,0-1.07,6.23q0,2.09,0,2.49l.66,3.16c.44,1.38,1.1,2.08,2,2.08a.6.6,0,0,0,.41-.1,2.48,2.48,0,0,1,1-.79,1.25,1.25,0,0,1,.53.87,1.43,1.43,0,0,1-.89,1.19,2.49,2.49,0,0,1-1.29.43M158,8.42a1.19,1.19,0,0,1-.95-.48,1.45,1.45,0,0,1-.4-.92,1.59,1.59,0,0,1,.4-1,1.21,1.21,0,0,1,1-.51c.88,0,1.32.48,1.32,1.45S159,8.42,158,8.42"/><path class="cls-1" d="M167.45,23.12a5.72,5.72,0,0,0-1,2.46,14.83,14.83,0,0,0-.52,3.59c0,1.32.87,2,2.62,2s3.64-1,5.9-2.92A16.5,16.5,0,0,0,179,22.35h.81q.48.46.33.87a15.49,15.49,0,0,1-4.93,7.09A10.32,10.32,0,0,1,168.64,33,4.33,4.33,0,0,1,165,31.36,6.39,6.39,0,0,1,163.89,27q.21-3.81,4.06-9.46,4.16-6,7.56-6.05a1.92,1.92,0,0,1,1.75,1.07,3.23,3.23,0,0,1,.46,1.66A10.79,10.79,0,0,1,175.61,20c-1.66,2.6-3.57,3.89-5.72,3.89a3.62,3.62,0,0,1-2.34-.66Zm7.75-9.82a3.36,3.36,0,0,0-1.75,1.17q-5.3,6.21-5.29,7.22,0,.28,1.17.36,2,.11,4.32-2.85c1.53-1.91,2.29-3.63,2.29-5.13,0-.65-.25-.9-.74-.77"/><path class="cls-2" d="M5.46,74.26a1,1,0,0,1,1-1.08,1.08,1.08,0,1,1-1,1.08Z"/><path class="cls-2" d="M10.86,74.26a1,1,0,0,1,1-1.08,1.08,1.08,0,1,1-1,1.08Z"/><path class="cls-2" d="M16.25,74.26a1,1,0,0,1,1-1.08,1.08,1.08,0,1,1-1,1.08Z"/><path class="cls-2" d="M21.65,74.26a1,1,0,0,1,1-1.08,1.08,1.08,0,1,1-1,1.08Z"/><path class="cls-2" d="M27,74.26a1,1,0,0,1,1-1.08,1.08,1.08,0,1,1-1,1.08Z"/><path class="cls-2" d="M32.44,74.26a1,1,0,0,1,1-1.08,1.08,1.08,0,1,1-1,1.08Z"/><path class="cls-2" d="M37.83,74.26a1,1,0,0,1,1-1.08,1.08,1.08,0,1,1-1,1.08Z"/><path class="cls-2" d="M43.23,74.26a1,1,0,0,1,1-1.08,1.08,1.08,0,1,1-1,1.08Z"/><path class="cls-2" d="M48.62,74.26a1,1,0,0,1,1-1.08,1.08,1.08,0,1,1-1,1.08Z"/><path class="cls-2" d="M54,74.26a1,1,0,0,1,1-1.08,1.08,1.08,0,1,1-1,1.08Z"/><path class="cls-2" d="M59.41,74.26a1,1,0,0,1,1-1.08,1.08,1.08,0,1,1-1,1.08Z"/><path class="cls-2" d="M64.81,74.26a1,1,0,0,1,1-1.08,1.08,1.08,0,1,1-1,1.08Z"/><path class="cls-2" d="M70.2,74.26a1,1,0,0,1,1-1.08,1.08,1.08,0,1,1-1,1.08Z"/><path class="cls-2" d="M75.6,74.26a1,1,0,0,1,1-1.08,1.08,1.08,0,1,1-1,1.08Z"/><path class="cls-2" d="M81,74.26a1,1,0,0,1,1-1.08,1.08,1.08,0,1,1-1,1.08Z"/><path class="cls-2" d="M86.39,74.26a1,1,0,0,1,1-1.08,1.08,1.08,0,1,1-1,1.08Z"/><path class="cls-2" d="M91.78,74.26a1,1,0,0,1,1-1.08,1.08,1.08,0,1,1-1,1.08Z"/><path class="cls-2" d="M97.18,74.26a1,1,0,1,1,2,0,1,1,0,1,1-2,0Z"/><path class="cls-2" d="M102.57,74.26a1,1,0,0,1,1-1.08,1.08,1.08,0,1,1-1,1.08Z"/><path class="cls-2" d="M108,74.26a1,1,0,1,1,2,0,1,1,0,1,1-2,0Z"/><path class="cls-2" d="M113.36,74.26a1,1,0,0,1,1-1.08,1.08,1.08,0,1,1-1,1.08Z"/><path class="cls-2" d="M118.76,74.26a1,1,0,1,1,2,0,1,1,0,1,1-2,0Z"/><path class="cls-2" d="M124.15,74.26a1,1,0,0,1,1-1.08,1.08,1.08,0,1,1-1,1.08Z"/><path class="cls-2" d="M129.55,74.26a1,1,0,1,1,2,0,1,1,0,1,1-2,0Z"/><path class="cls-2" d="M134.94,74.26a1,1,0,0,1,1-1.08,1.08,1.08,0,1,1-1,1.08Z"/><path class="cls-2" d="M140.34,74.26a1,1,0,1,1,2,0,1,1,0,1,1-2,0Z"/><path class="cls-2" d="M145.73,74.26a1,1,0,0,1,1-1.08,1.08,1.08,0,1,1-1,1.08Z"/><path class="cls-2" d="M151.13,74.26a1,1,0,1,1,2,0,1,1,0,1,1-2,0Z"/><path class="cls-2" d="M156.52,74.26a1,1,0,0,1,1-1.08,1.08,1.08,0,1,1-1,1.08Z"/><path class="cls-2" d="M161.92,74.26a1,1,0,1,1,2,0,1,1,0,1,1-2,0Z"/><path class="cls-2" d="M167.31,74.26a1,1,0,0,1,1-1.08,1.08,1.08,0,1,1-1,1.08Z"/><path class="cls-2" d="M172.71,74.26a1,1,0,1,1,2,0,1,1,0,1,1-2,0Z"/><path class="cls-1" d="M32.75,87.39c0-.47,0-.94-.07-1.41l1,0,1,0,1,0,1,0a1.83,1.83,0,0,0,0,.66l-.65,0-.61,0-.71,0-.93,0c0,.24,0,.46,0,.67s0,.46,0,.73v.84c0,.27,0,.47,0,.61h.87l.7,0,.59,0,.52,0a1.34,1.34,0,0,0,0,.35,1.24,1.24,0,0,0,0,.33c-.2,0-.42,0-.67-.06l-.76,0H33.69a1.55,1.55,0,0,1,0,.21v2.42c0,.27,0,.48,0,.62h.77l.82,0,.76,0a4.36,4.36,0,0,0,.62-.09,1,1,0,0,0,0,.17,1.21,1.21,0,0,0,0,.18,1.09,1.09,0,0,0,0,.28l-1,0h-2l-1,0c0-.47,0-.94.07-1.4s0-.94,0-1.43v-1.9C32.77,88.34,32.76,87.86,32.75,87.39Z"/><path class="cls-1" d="M41.79,90.69c-1-1-1.91-2-2.87-3,0,.2,0,.48,0,.82s0,.82,0,1.41v.57c0,.23,0,.47,0,.72s0,.51,0,.76,0,.5,0,.72,0,.41,0,.58a2.16,2.16,0,0,0,0,.33l-.39,0-.41,0a2.08,2.08,0,0,0,.05-.4c0-.2,0-.44,0-.72s0-.57.05-.89,0-.65,0-1,0-.64,0-.95,0-.58,0-.83c0-.7,0-1.31,0-1.82s0-.88,0-1.13h.18L40,87.4c.51.55,1,1.1,1.52,1.64L43,90.57c.45.48.85.89,1.19,1.23V90.3c0-.77,0-1.52,0-2.25s0-1.42-.07-2.07a1.41,1.41,0,0,0,.37.06,1.34,1.34,0,0,0,.35-.06c0,.16,0,.41,0,.73s0,.67-.06,1,0,.72,0,1.07,0,.64,0,.85v1.45c0,.27,0,.54,0,.82s0,.53,0,.77v1h-.15C43.64,92.72,42.74,91.72,41.79,90.69Z"/><path class="cls-1" d="M48.36,86.56h-.6l-.63,0-.61,0c-.19,0-.37,0-.52.06a1.72,1.72,0,0,0,0-.36A2,2,0,0,0,46,86l1.42,0,1.42,0,1.42,0,1.42,0a2.06,2.06,0,0,0,0,.35,1.72,1.72,0,0,0,0,.35c-.15,0-.33,0-.52-.06l-.61,0-.62,0h-.6c0,.75,0,1.51,0,2.28v1.89c0,.49,0,1,0,1.43s0,.94.06,1.39l-.54,0-.54,0c0-.45,0-.92.06-1.39s0-.94,0-1.43V88.84Q48.39,87.68,48.36,86.56Z"/><path class="cls-1" d="M53,87.41c0-.47,0-.94-.07-1.43l.63,0,.63,0q.32,0,.63,0t.63,0a4.17,4.17,0,0,1,.88.09,2.28,2.28,0,0,1,.73.29,1.52,1.52,0,0,1,.5.54,1.69,1.69,0,0,1,.18.82,1.67,1.67,0,0,1-.24.91,2,2,0,0,1-.58.63,2.85,2.85,0,0,1-.73.39,3.89,3.89,0,0,1-.71.18l.36.46.52.66.6.75.59.75.54.65c.17.2.31.35.41.45l-.33,0h-.65l-.32,0-.5-.69c-.23-.31-.47-.64-.75-1s-.54-.71-.83-1.06-.54-.64-.77-.88h-.42v.8c0,.49,0,1,0,1.43s0,.94.07,1.39l-.54,0-.55,0c0-.45,0-.92.07-1.39s0-.94,0-1.43V88.84C53,88.35,53,87.88,53,87.41Zm1.26,2.1h.41a3.68,3.68,0,0,0,.71-.08,2,2,0,0,0,.67-.27,1.61,1.61,0,0,0,.52-.52,1.56,1.56,0,0,0,.2-.82,1.41,1.41,0,0,0-.16-.71,1.33,1.33,0,0,0-.41-.44,1.65,1.65,0,0,0-.55-.23,3,3,0,0,0-.59-.06,5.93,5.93,0,0,0-.64,0l-.43,0c0,.41,0,.81,0,1.21s0,.79,0,1.19v.62A1.63,1.63,0,0,0,54.22,89.51Z"/><path class="cls-1" d="M59.69,87.39,59.63,86l1,0,1,0,1,0,1,0a1.83,1.83,0,0,0,0,.66l-.64,0-.62,0-.71,0-.92,0c0,.24,0,.46,0,.67s0,.46,0,.73,0,.57,0,.84v.61h.87l.71,0,.59,0,.51,0a2,2,0,0,0,0,.35,1.84,1.84,0,0,0,0,.33c-.19,0-.41,0-.67-.06l-.76,0H60.63V90a2.53,2.53,0,0,0,0,.29v1.09c0,.42,0,.77,0,1s0,.48,0,.62h.77l.83,0L63,93a4.84,4.84,0,0,0,.62-.09.51.51,0,0,0,0,.17v.18a1.09,1.09,0,0,0,0,.28l-1,0h-2l-1,0,.06-1.4c0-.47,0-.94,0-1.43v-1.9C59.72,88.34,59.71,87.86,59.69,87.39Z"/><path class="cls-1" d="M65.2,87.41c0-.47,0-.94-.06-1.43l.53,0,.54,0h.32l.38,0,.37,0H68a3.27,3.27,0,0,1,.51.07,3.68,3.68,0,0,1,.54.16,1.75,1.75,0,0,1,.48.32,1.69,1.69,0,0,1,.35.53,2.17,2.17,0,0,1,.13.77A2,2,0,0,1,69.67,89a2.27,2.27,0,0,1-.77.71,3,3,0,0,1-1,.34,5.27,5.27,0,0,1-.91.09h-.46l-.43,0v.6c0,.49,0,1,0,1.43s0,.94.06,1.39l-.54,0-.54,0c0-.45,0-.92.06-1.39s0-.94,0-1.43V88.84C65.23,88.35,65.22,87.88,65.2,87.41Zm1.71,2.34a3.51,3.51,0,0,0,.71-.08,1.88,1.88,0,0,0,.67-.28,1.5,1.5,0,0,0,.49-.56,1.91,1.91,0,0,0,.19-.92,1.87,1.87,0,0,0-.13-.77,1.07,1.07,0,0,0-.37-.46,1.44,1.44,0,0,0-.58-.23,4.38,4.38,0,0,0-.77-.06h-1v3.27A3.33,3.33,0,0,0,66.91,89.75Z"/><path class="cls-1" d="M71.33,87.41c0-.47,0-.94-.06-1.43l.62,0,.63,0q.32,0,.63,0c.21,0,.41,0,.63,0a4.17,4.17,0,0,1,.88.09,2.28,2.28,0,0,1,.73.29,1.52,1.52,0,0,1,.5.54,1.69,1.69,0,0,1,.18.82,1.67,1.67,0,0,1-.24.91,2,2,0,0,1-.58.63,2.85,2.85,0,0,1-.73.39,3.89,3.89,0,0,1-.71.18l.36.46.52.66.6.75.59.75.54.65c.17.2.31.35.41.45l-.33,0h-.65l-.32,0-.5-.69c-.23-.31-.47-.64-.74-1s-.55-.71-.84-1.06-.54-.64-.77-.88h-.42v.8c0,.49,0,1,0,1.43s0,.94.07,1.39l-.54,0-.54,0c0-.45,0-.92.06-1.39s0-.94,0-1.43V88.84C71.35,88.35,71.34,87.88,71.33,87.41Zm1.26,2.1H73a3.68,3.68,0,0,0,.71-.08,2,2,0,0,0,.67-.27,1.61,1.61,0,0,0,.52-.52,1.56,1.56,0,0,0,.2-.82,1.41,1.41,0,0,0-.16-.71,1.33,1.33,0,0,0-.41-.44,1.65,1.65,0,0,0-.55-.23,3,3,0,0,0-.59-.06,6,6,0,0,0-.64,0l-.43,0c0,.41,0,.81,0,1.21s0,.79,0,1.19v.62A1.63,1.63,0,0,0,72.59,89.51Z"/><path class="cls-1" d="M78.06,87.41c0-.47,0-.94-.06-1.43l.27,0,.27,0,.26,0,.28,0c0,.49,0,1-.06,1.43s0,.94,0,1.43v1.89c0,.49,0,1,0,1.43s0,.94.06,1.39l-.54,0-.54,0c0-.45,0-.92.06-1.39s0-.94,0-1.43V88.84C78.09,88.35,78.08,87.88,78.06,87.41Z"/><path class="cls-1" d="M81.15,92.52a1.58,1.58,0,0,0,.36.37,1.88,1.88,0,0,0,1.14.38,1.76,1.76,0,0,0,.66-.13,1.49,1.49,0,0,0,.81-.85,1.8,1.8,0,0,0,.11-.62,1.21,1.21,0,0,0-.26-.81,2.32,2.32,0,0,0-.65-.49,8,8,0,0,0-.83-.37,3.78,3.78,0,0,1-.83-.41A2.29,2.29,0,0,1,81,89a1.86,1.86,0,0,1-.26-1,2.07,2.07,0,0,1,.17-.84,1.93,1.93,0,0,1,.48-.66,2.5,2.5,0,0,1,.75-.43,3.13,3.13,0,0,1,1-.15,2.77,2.77,0,0,1,.91.13,2.11,2.11,0,0,1,.72.39,2.3,2.3,0,0,0-.17.39c0,.14-.09.32-.13.53h-.13q-.06-.15-.15-.33a1.19,1.19,0,0,0-.26-.34,1.34,1.34,0,0,0-.38-.26,1.18,1.18,0,0,0-.52-.1,1.7,1.7,0,0,0-.57.09,1.29,1.29,0,0,0-.45.29,1.19,1.19,0,0,0-.3.43,1.46,1.46,0,0,0-.11.55,1.22,1.22,0,0,0,.26.82,2.34,2.34,0,0,0,.65.5,4.83,4.83,0,0,0,.83.36,5.28,5.28,0,0,1,.83.39,2.33,2.33,0,0,1,.65.6,1.66,1.66,0,0,1,.25,1,2.56,2.56,0,0,1-.18,1,2.2,2.2,0,0,1-.53.79,2.37,2.37,0,0,1-.84.51,3.17,3.17,0,0,1-1.14.19,2.76,2.76,0,0,1-1.82-.6,2.51,2.51,0,0,0,.13-.46c0-.13,0-.31.08-.52h.13A2.12,2.12,0,0,0,81.15,92.52Z"/><path class="cls-1" d="M86.63,87.39,86.57,86l1,0,1,0,1,0,1,0a1.38,1.38,0,0,0,0,.66l-.65,0-.62,0-.71,0-.92,0c0,.24,0,.46,0,.67s0,.46,0,.73,0,.57,0,.84,0,.47,0,.61h.87l.7,0,.59,0,.51,0a2,2,0,0,0,0,.35,1.84,1.84,0,0,0,0,.33c-.19,0-.41,0-.66-.06l-.76,0H87.58c0,.06,0,.14,0,.21s0,.18,0,.29v1.09c0,.42,0,.77,0,1s0,.48,0,.62h.77l.82,0,.76,0a4.36,4.36,0,0,0,.62-.09l0,.17v.18a1.09,1.09,0,0,0,0,.28l-1,0h-2l-1,0,.06-1.4c0-.47,0-.94,0-1.43v-1.9C86.66,88.34,86.65,87.86,86.63,87.39Z"/><path class="cls-1" d="M95.23,92.52a1.8,1.8,0,0,0,.36.37,2,2,0,0,0,.5.27,1.87,1.87,0,0,0,.64.11,1.73,1.73,0,0,0,.66-.13,1.49,1.49,0,0,0,.81-.85,1.8,1.8,0,0,0,.11-.62,1.21,1.21,0,0,0-.26-.81,2.27,2.27,0,0,0-.64-.49,8.16,8.16,0,0,0-.84-.37,4.27,4.27,0,0,1-.83-.41A2.14,2.14,0,0,1,95.1,89a1.78,1.78,0,0,1-.26-1,2.06,2.06,0,0,1,.16-.84,1.93,1.93,0,0,1,.48-.66,2.43,2.43,0,0,1,.76-.43,3,3,0,0,1,1-.15,2.73,2.73,0,0,1,.91.13,2.11,2.11,0,0,1,.72.39,2.3,2.3,0,0,0-.17.39c0,.14-.08.32-.13.53h-.13q-.06-.15-.15-.33a1.36,1.36,0,0,0-.25-.34,1.5,1.5,0,0,0-.38-.26,1.25,1.25,0,0,0-.53-.1,1.7,1.7,0,0,0-.57.09,1.51,1.51,0,0,0-.45.29,1.19,1.19,0,0,0-.3.43,1.45,1.45,0,0,0-.1.55,1.17,1.17,0,0,0,.26.82,2.16,2.16,0,0,0,.64.5,5.62,5.62,0,0,0,.83.36,5.39,5.39,0,0,1,.84.39,2.29,2.29,0,0,1,.64.6,1.66,1.66,0,0,1,.26,1,2.56,2.56,0,0,1-.18,1,2.34,2.34,0,0,1-.53.79,2.41,2.41,0,0,1-.85.51,3.17,3.17,0,0,1-1.14.19,2.67,2.67,0,0,1-1.11-.19,2.82,2.82,0,0,1-.71-.41,2.6,2.6,0,0,0,.14-.46c0-.13,0-.31.07-.52H95A2.12,2.12,0,0,0,95.23,92.52Z"/><path class="cls-1" d="M100.43,88.11a3.61,3.61,0,0,1,.85-1.24,3.83,3.83,0,0,1,1.3-.77,5.27,5.27,0,0,1,1.67-.26,5.18,5.18,0,0,1,1.67.26,3.78,3.78,0,0,1,1.31.77,3.61,3.61,0,0,1,.85,1.24,4.4,4.4,0,0,1,.3,1.67,4.33,4.33,0,0,1-.3,1.67,3.43,3.43,0,0,1-.85,1.24,3.48,3.48,0,0,1-1.31.76,5.47,5.47,0,0,1-1.67.25,5.57,5.57,0,0,1-1.67-.25,3.52,3.52,0,0,1-1.3-.76,3.43,3.43,0,0,1-.85-1.24,4.33,4.33,0,0,1-.3-1.67A4.4,4.4,0,0,1,100.43,88.11Zm6.64.09a2.92,2.92,0,0,0-.65-1.1,2.5,2.5,0,0,0-1-.64,3.46,3.46,0,0,0-1.21-.21,3.36,3.36,0,0,0-1.2.21,2.61,2.61,0,0,0-1,.64,3,3,0,0,0-.64,1.1,5.54,5.54,0,0,0,0,3.16,3,3,0,0,0,.64,1.11,2.61,2.61,0,0,0,1,.64,3.36,3.36,0,0,0,1.2.21,3.46,3.46,0,0,0,1.21-.21,2.5,2.5,0,0,0,1-.64,2.89,2.89,0,0,0,.65-1.11,5.54,5.54,0,0,0,0-3.16Z"/><path class="cls-1" d="M109.9,87.41c0-.47,0-.94-.06-1.43l.27,0,.27,0,.26,0,.27,0c0,.49,0,1-.06,1.43s0,.94,0,1.43c0,.92,0,1.73,0,2.4s0,1.29,0,1.83l1.5,0a12.46,12.46,0,0,0,1.54-.13,1.74,1.74,0,0,0-.05.34,1.18,1.18,0,0,0,.05.29l-1,0h-2l-1,0c0-.45,0-.92.06-1.39s0-.94,0-1.43V88.84C109.92,88.35,109.91,87.88,109.9,87.41Z"/><path class="cls-1" d="M115.4,87.41c0-.47,0-.94-.06-1.43l.28,0,.26,0,.27,0,.27,0c0,.49,0,1-.06,1.43s0,.94,0,1.43v1.89c0,.49,0,1,0,1.43s0,.94.06,1.39l-.54,0-.54,0c0-.45,0-.92.06-1.39s0-.94,0-1.43V88.84C115.43,88.35,115.42,87.88,115.4,87.41Z"/><path class="cls-1" d="M118.47,87.41c0-.47,0-.94-.06-1.43l.83,0,.83,0c.28,0,.56,0,.83,0s.56,0,.84,0a4.72,4.72,0,0,1,1.65.26,3,3,0,0,1,1.14.72,2.89,2.89,0,0,1,.64,1.14,5.56,5.56,0,0,1,.2,1.53,4.06,4.06,0,0,1-.38,1.86,3.35,3.35,0,0,1-1,1.21,3.56,3.56,0,0,1-1.3.66,5.06,5.06,0,0,1-1.36.19h-2.21l-.74,0c0-.45,0-.92.06-1.39s0-.94,0-1.43V88.84C118.5,88.35,118.49,87.88,118.47,87.41Zm1,5.66a3.79,3.79,0,0,0,.62.08c.27,0,.54,0,.82,0a5,5,0,0,0,1.21-.15,2.58,2.58,0,0,0,1.09-.53,2.91,2.91,0,0,0,.78-1.09,4.49,4.49,0,0,0,.3-1.78,4.71,4.71,0,0,0-.23-1.58,2.47,2.47,0,0,0-.65-1,2.32,2.32,0,0,0-1-.5,5.46,5.46,0,0,0-1.26-.14c-.33,0-.63,0-.92,0s-.55,0-.77.08c0,.35,0,.72,0,1.1s0,.78,0,1.18v1.89C119.4,91.53,119.42,92.3,119.47,93.07Z"/><path class="cls-1" d="M132.55,93.55l-.29,0h-.59l-.29,0c0-.17-.12-.37-.21-.61s-.18-.49-.29-.75l-.33-.79c-.11-.27-.21-.52-.3-.77h-2.79c-.24.58-.45,1.12-.64,1.64s-.34,1-.43,1.28l-.41,0-.41,0c.6-1.28,1.18-2.56,1.74-3.83s1.14-2.57,1.71-3.88h.21c.18.42.37.89.57,1.38l.63,1.51.64,1.51c.21.5.41,1,.6,1.39l.51,1.15A8.32,8.32,0,0,0,132.55,93.55Zm-4.88-3.42h2.42l-1.22-2.8Z"/><path class="cls-1" d="M133.79,87.41c0-.47,0-.94-.06-1.43l.27,0,.27,0,.26,0,.28,0c0,.49-.05,1-.06,1.43s0,.94,0,1.43v1.89c0,.49,0,1,0,1.43s0,.94.06,1.39l-.54,0-.54,0c0-.45,0-.92.06-1.39s0-.94,0-1.43V88.84C133.82,88.35,133.81,87.88,133.79,87.41Z"/><path class="cls-1" d="M136.85,87.41c0-.47,0-.94-.06-1.43l.63,0,.63,0c.21,0,.42,0,.62,0s.42,0,.63,0a4.1,4.1,0,0,1,.88.09,2.33,2.33,0,0,1,.74.29,1.49,1.49,0,0,1,.49.54,1.69,1.69,0,0,1,.18.82,1.67,1.67,0,0,1-.23.91,2.07,2.07,0,0,1-.58.63,3,3,0,0,1-.73.39,3.89,3.89,0,0,1-.71.18l.36.46.52.66c.19.23.39.49.59.75l.6.75.54.65a5.27,5.27,0,0,0,.41.45l-.34,0h-.65l-.32,0-.5-.69c-.22-.31-.47-.64-.74-1s-.55-.71-.83-1.06-.54-.64-.78-.88h-.42v.8c0,.49,0,1,0,1.43s0,.94.06,1.39l-.54,0-.54,0c0-.45,0-.92.06-1.39s0-.94,0-1.43V88.84C136.88,88.35,136.87,87.88,136.85,87.41Zm1.27,2.1h.4a3.51,3.51,0,0,0,.71-.08,2,2,0,0,0,.68-.27,1.69,1.69,0,0,0,.51-.52,1.47,1.47,0,0,0,.21-.82,1.52,1.52,0,0,0-.16-.71,1.36,1.36,0,0,0-.42-.44,1.57,1.57,0,0,0-.55-.23,2.93,2.93,0,0,0-.58-.06,5.93,5.93,0,0,0-.64,0l-.43,0c0,.41,0,.81,0,1.21s0,.79,0,1.19v.62A1.74,1.74,0,0,0,138.12,89.51Z"/><path class="cls-1" d="M143.58,87.39,143.52,86l1,0,1,0,1,0,1,0a1.38,1.38,0,0,0,0,.66l-.65,0-.62,0-.7,0-.93,0c0,.24,0,.46,0,.67s0,.46,0,.73,0,.57,0,.84,0,.47,0,.61h.87l.7,0,.59,0,.51,0a2,2,0,0,0,0,.35,1.84,1.84,0,0,0,0,.33c-.19,0-.41,0-.66-.06l-.76,0h-1.25c0,.06,0,.14,0,.21s0,.18,0,.29v1.09c0,.42,0,.77,0,1s0,.48,0,.62h.77l.82,0,.76,0a4.36,4.36,0,0,0,.62-.09l0,.17v.18a1.09,1.09,0,0,0,0,.28l-1,0h-2l-1,0,.06-1.4c0-.47,0-.94,0-1.43v-1.9C143.61,88.34,143.6,87.86,143.58,87.39Z"/></g></g></svg>